<?xml version="1.0" encoding="UTF-8"?>
<svg width="48" height="48" viewBox="0 0 48 48" fill="none" xmlns="http://www.w3.org/2000/svg">
  <rect width="48" height="48" rx="8" fill="#F3F4F6"/>
  <path d="M24 16C27.3137 16 30 18.6863 30 22C30 25.3137 27.3137 28 24 28C20.6863 28 18 25.3137 18 22C18 18.6863 20.6863 16 24 16Z" stroke="#9CA3AF" stroke-width="2"/>
  <path d="M24 28V32" stroke="#9CA3AF" stroke-width="2"/>
  <path d="M21 30H27" stroke="#9CA3AF" stroke-width="2"/>
  <path d="M24 20C25.1046 20 26 20.8954 26 22C26 23.1046 25.1046 24 24 24C22.8954 24 22 23.1046 22 22C22 20.8954 22.8954 20 24 20Z" fill="#9CA3AF"/>
</svg>
